HIERARCHY
ROOT Hips
{
	OFFSET 0.000000 0.000000 0.000000
	CHANNELS 6 Xposition Yposition Zposition Zrotation Yrotation Xrotation 
	JOINT LHipJoint
	{
		OFFSET 0.000000 0.000000 0.000000
		CHANNELS 3 Zrotation Yrotation Xrotation
		JOINT LeftUpLeg
		{
			OFFSET 1.363060 -1.794630 0.839290
			CHANNELS 3 Zrotation Yrotation Xrotation
			JOINT LeftLeg
			{
				OFFSET 2.448110 -6.726130 0.000000
				CHANNELS 3 Zrotation Yrotation Xrotation
				JOINT LeftFoot
				{
					OFFSET 2.562200 -7.039590 0.000000
					CHANNELS 3 Zrotation Yrotation Xrotation
					JOINT LeftToeBase
					{
						OFFSET 0.157640 -0.433110 2.322550
						CHANNELS 3 Zrotation Yrotation Xrotation
						End Site
						{
							OFFSET 0.000000 0.000000 0.000000
						}
					}
				}
			}
		}
	}
	JOINT RHipJoint
	{
		OFFSET 0.000000 0.000000 0.000000
		CHANNELS 3 Zrotation Yrotation Xrotation
		JOINT RightUpLeg
		{
			OFFSET -1.305520 -1.794630 0.839290
			CHANNELS 3 Zrotation Yrotation Xrotation
			JOINT RightLeg
			{
				OFFSET -2.542530 -6.985550 0.000000
				CHANNELS 3 Zrotation Yrotation Xrotation
				JOINT RightFoot
				{
					OFFSET -2.568260 -7.056230 0.000000
					CHANNELS 3 Zrotation Yrotation Xrotation
					JOINT RightToeBase
					{
						OFFSET -0.164730 -0.452590 2.363150
						CHANNELS 3 Zrotation Yrotation Xrotation
						End Site
						{
							OFFSET 0.000000 0.000000 0.000000
						}
					}
				}
			}
		}
	}
	JOINT LowerBack
	{
		OFFSET 0.000000 0.000000 0.000000
		CHANNELS 3 Zrotation Yrotation Xrotation
		JOINT Spine
		{
			OFFSET 0.028270 2.035590 -0.193380
			CHANNELS 3 Zrotation Yrotation Xrotation
			JOINT Spine1
			{
				OFFSET 0.056720 2.048850 -0.042750
				CHANNELS 3 Zrotation Yrotation Xrotation
				JOINT Neck
				{
					OFFSET 0.000000 0.000000 0.000000
					CHANNELS 3 Zrotation Yrotation Xrotation
					JOINT Neck1
					{
						OFFSET -0.054170 1.746240 0.172020
						CHANNELS 3 Zrotation Yrotation Xrotation
						JOINT Head
						{
							OFFSET 0.104070 1.761360 -0.123970
							CHANNELS 3 Zrotation Yrotation Xrotation
							End Site
							{
								OFFSET 0.000000 0.000000 0.000000
							}
						}
					}
				}
				JOINT LeftShoulder
				{
					OFFSET 0.000000 0.000000 0.000000
					CHANNELS 3 Zrotation Yrotation Xrotation
					JOINT LeftArm
					{
						OFFSET 3.362410 1.200890 -0.311210
						CHANNELS 3 Zrotation Yrotation Xrotation
						JOINT LeftForeArm
						{
							OFFSET 4.983000 -0.000000 -0.000000
							CHANNELS 3 Zrotation Yrotation Xrotation
							JOINT LeftHand
							{
								OFFSET 3.483560 -0.000000 -0.000000
								CHANNELS 3 Zrotation Yrotation Xrotation
								JOINT LeftFingerBase
								{
									OFFSET 0.000000 0.000000 0.000000
									CHANNELS 3 Zrotation Yrotation Xrotation
									JOINT LeftHandIndex1
									{
										OFFSET 0.715260 -0.000000 -0.000000
										CHANNELS 3 Zrotation Yrotation Xrotation
										End Site
										{
											OFFSET 0.000000 0.000000 0.000000
										}
									}
								}
								JOINT LThumb
								{
									OFFSET 0.000000 0.000000 0.000000
									CHANNELS 3 Zrotation Yrotation Xrotation
									End Site
									{
										OFFSET 0.000000 0.000000 0.000000
									}
								}
							}
						}
					}
				}
				JOINT RightShoulder
				{
					OFFSET 0.000000 0.000000 0.000000
					CHANNELS 3 Zrotation Yrotation Xrotation
					JOINT RightArm
					{
						OFFSET -3.136600 1.374050 -0.404650
						CHANNELS 3 Zrotation Yrotation Xrotation
						JOINT RightForeArm
						{
							OFFSET -5.241900 -0.000000 -0.000000
							CHANNELS 3 Zrotation Yrotation Xrotation
							JOINT RightHand
							{
								OFFSET -3.444170 -0.000000 -0.000000
								CHANNELS 3 Zrotation Yrotation Xrotation
								JOINT RightFingerBase
								{
									OFFSET 0.000000 0.000000 0.000000
									CHANNELS 3 Zrotation Yrotation Xrotation
									JOINT RightHandIndex1
									{
										OFFSET -0.622530 -0.000000 -0.000000
										CHANNELS 3 Zrotation Yrotation Xrotation
										End Site
										{
											OFFSET 0.000000 0.000000 0.000000
										}
									}
								}
								JOINT RThumb
								{
									OFFSET 0.000000 0.000000 0.000000
									CHANNELS 3 Zrotation Yrotation Xrotation
									End Site
									{
										OFFSET 0.000000 0.000000 0.000000
									}
								}
							}
						}
					}
				}
			}
		}
	}
}
MOTION
Frames: 9
Frame Time: 0.008333
1.892161 17.799016 -35.988636 -3.350688 3.450527 3.514481 1.568542 0.905735 0.464166 -16.338108 -7.636583 -6.509411 1.152840 8.265096 23.698043 0.696119 -0.685954 -12.177268 0.028200 -1.083400 -2.978400 -4.124243 -1.014664 -1.410401 25.259588 1.659492 -5.822821 -2.054885 -8.283469 24.482122 -0.258679 -6.039020 -18.297889 -0.061900 -1.605000 4.415100 1.170630 -2.090793 3.271521 1.638031 -2.787978 -2.519162 4.529872 -1.629858 -2.294608 -2.903735 -2.751420 -12.777390 5.792807 -3.704630 8.138543 0.659400 -1.628400 6.583800 1.321841 4.436487 -0.660509 -92.841895 7.441253 14.325569 13.491342 -22.268281 -2.221995 0.497599 0.074795 9.219221 9.958569 41.081110 6.250700 -7.125000 0.000000 0.000000 -37.141300 67.902200 -21.573300 -0.364082 -4.900211 -1.779445 86.551313 -5.212897 14.338806 -12.736413 22.720851 -2.460864 0.824483 0.672904 -13.606821 -17.074976 15.919303 -4.929100 7.125000 0.000000 0.000000 6.453800 -13.943100 4.739300 
1.890946 17.804991 -35.985902 -3.572478 3.486414 3.516383 1.572283 0.908183 0.459719 -16.068225 -7.505082 -6.571836 1.152792 8.253258 23.668929 0.682532 -0.692047 -11.980197 0.092400 -1.960000 -5.395200 -4.139208 -1.022303 -1.406555 25.538530 1.711547 -5.871895 -2.038015 -8.268008 24.418440 -0.196911 -6.409674 -18.178275 -0.028000 -1.080700 2.970700 1.374393 -2.000875 3.225773 1.651107 -2.664305 -2.507823 4.452539 -1.569133 -2.264351 -2.701832 -2.727617 -12.722935 5.657896 -3.715913 7.989924 0.566900 -1.641800 6.510300 1.332599 4.425888 -0.658234 -92.774619 7.362960 14.727339 13.501623 -22.282232 -2.224349 0.498479 0.076651 9.038262 10.027747 41.191331 6.309900 -7.125000 0.000000 0.000000 -37.255100 68.007700 -21.732600 -0.349593 -4.918579 -1.778731 86.607669 -5.282593 14.075881 -12.673553 22.618691 -2.432245 0.827086 0.669026 -13.595819 -17.003477 15.974424 -4.927300 7.125000 0.000000 0.000000 6.502900 -13.888500 4.783400 
1.892364 17.807421 -35.979522 -3.455947 3.682813 3.528900 1.571641 0.906175 0.465380 -16.194189 -7.693644 -6.621587 1.186435 8.332003 23.897732 0.726573 -0.853985 -12.234256 0.039400 -1.280600 -3.521300 -4.131467 -1.016498 -1.420096 25.418685 1.518019 -5.770108 -2.013279 -8.206445 24.241398 -0.190209 -6.465165 -18.181910 -0.007400 -0.556500 1.529300 1.290223 -2.031897 3.178423 1.624959 -2.706153 -2.520093 4.440359 -1.594225 -2.254177 -3.056574 -2.714771 -12.886170 6.107931 -3.631451 8.274234 0.819300 -1.567100 6.662400 1.308198 4.461168 -0.669250 -92.791966 7.546363 15.036102 13.724088 -22.615116 -2.309047 0.497651 0.078038 8.496768 10.562651 41.359839 6.690500 -7.125000 0.000000 0.000000 -36.997800 68.308500 -21.809700 -0.373997 -4.887336 -1.775399 86.574194 -5.443435 14.103662 -12.611082 22.519685 -2.400707 0.838496 0.659784 -13.575096 -16.950859 16.255652 -5.004500 7.125000 0.000000 0.000000 6.541500 -13.591700 4.853500 
1.893579 17.781496 -35.984383 -3.605588 3.675632 3.468246 1.570853 0.899442 0.462233 -16.014657 -7.671592 -6.824926 1.246145 8.452427 24.258417 0.786913 -1.130500 -12.457804 0.014100 -0.765800 -2.104700 -4.142200 -1.019410 -1.436704 25.601138 1.347496 -5.646712 -1.972293 -8.118621 23.970507 -0.146862 -6.619541 -17.930060 -0.000300 -0.108500 0.298000 1.442796 -1.960027 3.253009 1.637386 -2.604839 -2.476905 4.382898 -1.543309 -2.200584 -2.762699 -2.779932 -12.780903 5.786612 -3.777651 7.776679 0.620300 -1.670800 6.449300 1.322590 4.431676 -0.658539 -92.831351 7.398951 15.267055 13.851321 -22.809546 -2.353566 0.497576 0.082677 8.236146 10.458237 41.817956 6.679600 -7.125000 0.000000 0.000000 -37.893800 68.621000 -22.651500 -0.353458 -4.924104 -1.772987 86.611835 -5.383541 13.871971 -12.580041 22.469639 -2.394565 0.823600 0.669200 -13.389450 -16.991084 15.799883 -4.867100 7.125000 0.000000 0.000000 6.509200 -14.074400 4.762300 
1.894491 17.796383 -35.976382 -3.468179 3.666969 3.582102 1.573635 0.899373 0.462255 -16.173652 -7.696325 -6.876988 1.242185 8.458857 24.269777 0.752402 -0.929984 -12.414562 0.036700 -1.237200 -3.401700 -4.136383 -1.015389 -1.432559 25.430898 1.383612 -5.700443 -1.973446 -8.109866 23.948773 -0.177178 -6.451439 -18.007380 -0.002200 0.301000 -0.827100 1.310972 -1.943524 3.110347 1.616980 -2.591439 -2.498063 4.421106 -1.538997 -2.172352 -3.159392 -2.766841 -12.892932 6.232976 -3.684927 8.030480 0.879300 -1.595900 6.577700 1.301613 4.465990 -0.667020 -92.814607 7.471655 15.449986 13.921494 -22.915016 -2.385268 0.497105 0.082241 8.122147 10.452419 41.598246 6.647400 -7.125000 0.000000 0.000000 -37.518800 68.454200 -22.268200 -0.374218 -4.893388 -1.768303 86.511591 -5.406280 13.992523 -12.411807 22.190601 -2.314263 0.845181 0.647821 -13.636491 -16.700120 16.415155 -4.984700 7.125000 0.000000 0.000000 6.712700 -13.436200 5.004400 
1.890845 17.759418 -35.981851 -3.500694 3.845983 3.579514 1.574903 0.894690 0.460655 -16.086684 -7.726912 -7.061466 1.278168 8.525452 24.468913 0.774342 -1.112675 -12.336968 0.052200 -1.474000 -4.054100 -4.144806 -1.022995 -1.445543 25.544275 1.076277 -5.702467 -1.945137 -8.057121 23.784803 -0.104434 -6.825940 -17.760776 -0.039800 1.288200 -3.542300 1.298614 -1.937507 3.122329 1.633273 -2.588150 -2.480898 4.453619 -1.533380 -2.135038 -2.824866 -2.833860 -12.819515 5.897132 -3.840132 7.638818 0.662800 -1.699100 6.409300 1.319018 4.440731 -0.657576 -92.938469 7.457193 15.280614 14.257035 -23.428497 -2.523623 0.492847 0.091002 7.995893 9.063565 41.674740 5.723100 -7.125000 0.000000 0.000000 -39.039900 68.065000 -22.942100 -0.352548 -4.929677 -1.771878 86.568121 -5.447841 13.754749 -12.442179 22.292196 -2.364284 0.845580 0.595388 -13.468042 -15.257790 16.680388 -4.642600 7.125000 0.000000 0.000000 7.696800 -13.248400 5.781600 
1.892566 17.801142 -35.976484 -3.543864 3.792973 3.655720 1.569125 0.893846 0.455488 -16.054199 -7.816883 -6.954836 1.240844 8.452814 24.244926 0.771962 -1.063639 -12.399443 0.013100 -0.740200 -2.034200 -4.141364 -1.014782 -1.437269 25.527135 1.385340 -5.684038 -1.971694 -8.107670 23.939230 -0.206471 -6.322323 -18.143891 -0.009600 0.633300 -1.740400 1.336404 -1.870990 3.022090 1.636868 -2.500605 -2.448992 4.470705 -1.500978 -1.981351 -3.099383 -2.823885 -13.232859 6.160926 -3.756605 7.998196 0.828200 -1.632200 6.634000 1.300332 4.474484 -0.666736 -92.933022 7.263655 15.626308 14.332335 -23.544872 -2.557789 0.493202 0.091898 7.704926 8.995789 41.479737 5.655300 -7.125000 0.000000 0.000000 -38.778300 67.898700 -22.630100 -0.362080 -4.910458 -1.767435 86.544321 -5.310677 13.654823 -12.369266 22.176199 -2.341529 0.829501 0.608383 -13.376081 -15.336192 16.179938 -4.518200 7.125000 0.000000 0.000000 7.641500 -13.770500 5.654500 
1.879907 17.793851 -35.968990 -3.845922 3.746910 3.472061 1.570764 0.896230 0.454551 -15.665928 -7.670938 -6.971034 1.294874 8.555672 24.568067 0.808826 -1.189742 -12.607766 0.013500 -0.749500 -2.059900 -4.164358 -1.008001 -1.445022 26.026545 1.796068 -5.221619 -1.920341 -8.025542 23.681131 -0.116990 -6.979624 -18.172651 -0.021500 0.947000 -2.602900 1.512043 -1.789300 3.144849 1.668905 -2.379591 -2.417270 4.491729 -1.445666 -1.988507 -3.171424 -2.965960 -13.152501 6.342931 -3.941566 8.000757 0.892300 -1.708700 6.628000 1.301924 4.480890 -0.667485 -92.907657 7.299094 16.025417 14.533086 -23.830107 -2.618256 0.490249 0.103967 7.539951 8.721772 43.102001 5.646100 -7.125000 0.000000 0.000000 -41.940500 68.988100 -25.698600 -0.358004 -4.903420 -1.758573 86.607806 -5.398163 13.411248 -12.384223 22.154035 -2.312799 0.827021 0.658979 -13.213225 -16.738609 15.800660 -4.797500 7.125000 0.000000 0.000000 6.680400 -14.088300 4.887300 
1.895503 17.802054 -35.970813 -3.416582 3.805812 3.702446 1.568615 0.890712 0.453215 -16.213425 -7.909150 -6.946906 1.241928 8.465590 24.276658 0.765935 -0.993992 -12.462470 0.015200 -0.794900 -2.184600 -4.139525 -1.011706 -1.443347 25.367867 1.370700 -5.687250 -1.965671 -8.087697 23.881812 -0.199080 -6.342610 -18.084765 -0.007000 0.540100 -1.484100 1.219581 -1.738670 2.943138 1.619662 -2.331770 -2.431957 4.512803 -1.418454 -1.906840 -3.268354 -3.021832 -13.320515 6.229115 -3.979995 8.008516 0.865300 -1.740300 6.666500 1.290463 4.485961 -0.668957 -93.020913 7.159088 16.366396 14.551140 -23.868298 -2.639293 0.492239 0.097594 7.267117 9.185060 42.266950 5.871400 -7.125000 0.000000 0.000000 -39.960300 68.541200 -23.960000 -0.369089 -4.905717 -1.764044 86.471096 -5.311092 13.344043 -12.282321 21.985454 -2.268165 0.829168 0.655204 -13.347714 -16.636875 15.872406 -4.792800 7.125000 0.000000 0.000000 6.749700 -14.016900 4.949000 
